<?xml version="1.0" encoding="UTF-8"?>
<svg id="Layer_2" xmlns="http://www.w3.org/2000/svg" version="1.1" viewBox="0 0 549.13 293.38">
  <!-- Generator: Adobe Illustrator 29.4.0, SVG Export Plug-In . SVG Version: 2.1.0 Build 152)  -->
  <defs>
    <style>
      .st0 {
        isolation: isolate;
      }

      .st1 {
        fill: #eceb86;
      }
    </style>
  </defs>
  <g id="Layer_1-2">
    <g class="st0">
      <g class="st0">
        <path class="st1" d="M2.18,33.73h82.69v86.22c0,11.06-3.72,20.31-11.15,27.74-7.44,7.44-16.96,11.15-28.56,11.15h-3.81v-10.34h43.52v49.78c0,12.15-3.58,21.85-10.74,29.11-7.17,7.25-17.09,10.88-29.78,10.88H2.18V33.73ZM45.7,131.1v-62.02h-4.35v65.82h1.9c1.63,0,2.45-1.27,2.45-3.81ZM45.02,201.41c.45-.99.68-2.13.68-3.4v-27.74h-4.35v32.64h1.9c.72,0,1.31-.5,1.77-1.5Z"/>
        <path class="st1" d="M102.68,44.61c7.16-7.25,17.09-10.88,29.78-10.88h42.16v164.56c0,12.15-3.58,21.85-10.74,29.11-7.17,7.25-17.09,10.88-29.78,10.88h-42.16V73.71c0-12.15,3.58-21.85,10.74-29.1ZM134.77,201.41c.45-.99.68-2.13.68-3.4V69.09h-1.9c-.73,0-1.32.5-1.77,1.5-.45,1-.68,2.13-.68,3.4v128.93h1.9c.72,0,1.31-.5,1.77-1.5Z"/>
        <path class="st1" d="M181.69,33.73h82.69v164.56c0,12.15-3.58,21.85-10.74,29.11-7.17,7.25-17.09,10.88-29.78,10.88h-42.16V33.73ZM224.53,201.41c.45-.99.68-2.13.68-3.4V69.09h-4.35v133.82h1.9c.72,0,1.31-.5,1.77-1.5Z"/>
        <path class="st1" d="M271.45,33.73h39.17v204.54h-39.17V33.73Z"/>
        <path class="st1" d="M328.43,44.61c7.16-7.25,17.09-10.88,29.79-10.88h42.16v164.56c0,12.15-3.58,21.85-10.74,29.11-7.17,7.25-17.09,10.88-29.79,10.88h-42.16V73.71c0-12.15,3.58-21.85,10.74-29.1ZM360.53,201.41c.45-.99.68-2.13.68-3.4V69.09h-1.9c-.73,0-1.32.5-1.77,1.5-.45,1-.68,2.13-.68,3.4v128.93h1.9c.72,0,1.31-.5,1.77-1.5Z"/>
        <path class="st1" d="M407.44,33.73h82.69v164.56c0,12.15-3.58,21.85-10.74,29.11-7.17,7.25-17.09,10.88-29.79,10.88h-42.16V33.73ZM450.28,201.41c.45-.99.68-2.13.68-3.4V69.09h-4.35v133.82h1.9c.72,0,1.31-.5,1.77-1.5Z"/>
        <path class="st1" d="M497.2,33.73h39.17v204.54h-39.17V33.73Z"/>
      </g>
    </g>
  </g>
</svg>